<?xml version="1.0" encoding="UTF-8"?><svg id="a" xmlns="http://www.w3.org/2000/svg" viewBox="0 0 2519.43 1173.21"><defs><style>.b{fill:#8d4399;}.c{fill:#4d833c;}</style></defs><path class="c" d="m2182.18,439.6c4.38,3.47,7.46,6.57,11.11,8.66,5.79,3.31,12.09,5.71,17.95,8.91,10.66,5.82,18.95,14.58,25.89,24.17,6.47,8.94,12.8,18.57,16.35,28.88,4.32,12.55,1.74,25.87-3.82,37.9-8.58,18.57-18.04,36.74-26.88,55.19-3.78,7.88-6.95,16.06-10.91,25.29,11.72-1.25,22-2.07,32.18-3.5,14.18-1.99,28.24-3.93,42.56-.83,15.69,3.4,28.11,10.67,33.55,26.64,4.83,14.18,7.54,28.55,1.88,43.25-2.87,7.46-6.08,14.83-8.42,22.46-4.05,13.23-7.53,26.64-11.23,39.89,6.16-4.95,11.68-9.64,17.47-13.96,3.91-2.92,7.34-5.96,9.14-10.72,4.48-11.91,9.43-23.66,13.78-35.62,6.11-16.8,8.27-34.35,6.76-52.03-1.16-13.68-2.79-27.23-.82-40.94,2.14-14.92,8.62-27.82,18.62-38.84,14.94-16.45,35.54-23.79,54.89-33.05,4.71-2.25,9.53-4.38,14.47-6.04,19.48-6.55,36.65-16.83,51.05-31.5,10.28-10.47,18.94-22.26,26.1-35.05,2.5-4.46,5.64-9.52,5.57-14.27-.22-16.98-1.89-33.94-2.58-50.93-.27-6.75,1.07-13.56.8-20.3-.59-14.53-7.39-24.46-22.47-28.47-6.18-1.64-11.84-1.49-16.72,3.65-2.33,2.45-5.33,4.42-8.33,6.06-16.81,9.17-33.41,18.79-50.66,27.08-21.28,10.23-43.93,16.73-67.16,20.97-14.64,2.67-29.33,5.31-44.12,6.94-11.04,1.22-22.27,1.05-33.41.94-3.23-.03-7.06-1.18-9.54-3.17-9.77-7.82-19.02-16.28-28.62-24.31-11.35-9.49-22.84-18.81-34.35-28.1-1.33-1.07-3.11-1.93-4.79-2.18-7.73-1.17-15.47-2.36-23.25-3.05-14.08-1.24-28.19-2.14-42.28-3.16-3.97-.29-7.95-.46-12.44-.72,1.67,2.33,2.68,4.04,3.99,5.48,4.29,4.72,8.93,8.14,16.02,8.22,14.7.16,29.43.79,44.08,2.01,7.76.64,15.21,3.53,18.57,11.56,5.06,12.09,10.3,24.14,8.96,37.88-.73,7.52-3.16,13.43-10.1,17.24-6.14,3.37-12,7.25-18.87,11.46Z"/><g><path class="b" d="m2304.1,654.27c-1.77-3.96-3.97-8.46-7.31-10.86-14.57-10.46-30.6-11.36-47.35-5.7-3.98,1.35-8.19,2.04-12.32,2.85-3.37.66-6.94.59-10.17,1.63-11.67,3.76-23.23,7.87-34.84,11.82-5.29,1.8-10.59,3.56-16.24,5.45.8-2.21,1.26-3.98,2.05-5.58,7.17-14.58,12.83-29.7,16.32-45.58,1.72-7.8,2.51-15.88,4.95-23.44,2.38-7.38,6.54-14.17,9.54-21.37,3.84-9.2,7.19-18.6,10.97-27.82,3.45-8.41,2.7-17.06.3-25.19-3.58-12.11-9.96-22.99-17.08-33.53-9.76-14.45-22.77-23.74-39.5-28.09-2.78-.72-5.58-1.38-8.38-2.07-.17-.67-.33-1.33-.5-2,7.35-4.83,14.44-10.14,22.11-14.38,16.88-9.32,21.82-29.07,10.88-44.3-5.8-8.07-14.38-12.5-23.52-15.48-14.83-4.84-30.32-5.42-45.76-6.16-2.21-.11-4.96-1.05-6.43-2.59-8.35-8.76-18.27-12.95-30.45-12.42-5.4.23-11.09.08-16.22-1.39-8.39-2.4-16.67-4.34-25.48-4.64-16-.55-31.96-2.21-47.96-2.73-10.25-.33-20.54.76-30.81.83-22.5.15-45,.18-67.5.04-36.82-.24-73.63-.6-110.45-1.04-8.98-.11-17.97-.63-26.94-1.12-22.76-1.23-45.52-2.52-68.28-3.84-17.61-1.02-35.21-2.08-52.82-3.17-20.09-1.25-40.2-2.34-60.27-3.91-13.03-1.01-26.19-1.8-38.94-4.41-13.71-2.8-27.19-7.1-40.47-11.63-31.07-10.61-62.08-21.42-92.89-32.78-20.69-7.63-41.07-16.15-61.44-24.63-10.72-4.46-21.46-9.07-31.58-14.7-15.44-8.59-30.39-18.08-45.49-27.27-20.89-12.72-41.9-25.27-62.56-38.34-17.04-10.79-33.52-22.12-52.54-29.82-21.33-8.63-41.65-19.81-62.24-30.22-16.31-8.24-31.93-17.99-48.64-25.27-21.25-9.26-43.06-17.34-65.03-24.77-31.87-10.77-64.01-20.8-96.21-30.56-17.02-5.16-34.32-9.49-51.67-13.42-20.71-4.69-41.58-8.73-62.44-12.68-10.13-1.92-20.4-3.27-30.66-4.37-10.37-1.11-20.8-1.93-31.22-2.28-20.78-.69-41.6-1.89-62.34-1.18-24.73.86-49.45,3.01-74.07,5.55-17.94,1.84-36,4.04-53.52,8.15-34.2,8.02-68.09,17.38-102.05,26.42-17.04,4.53-34.01,9.35-50.89,14.43-17.36,5.22-34.74,10.46-51.82,16.52-16.32,5.79-32.28,12.58-48.35,19.05-25,10.06-48.7,22.68-71.65,36.75-18.9,11.59-37.36,23.85-53.75,38.86-14.13,12.93-28.03,26.14-41.56,39.69-5.88,5.89-11.01,12.66-15.74,19.54-10,14.57-20.18,29.09-29.01,44.37-6.76,11.69-12.54,24.16-17.05,36.89-10.5,29.61-18.61,59.95-22.78,91.15-2.55,19.05-4.37,38.21-5.86,57.37-.61,7.87.25,15.89.91,23.8.75,9,1.18,18.15,3.24,26.88,5.39,22.87,11.31,45.62,17.55,68.28,8.67,31.45,20.33,61.85,34.63,91.14,8.12,16.62,17.45,32.68,26.69,48.73,16.68,28.98,33.9,57.7,55.35,83.46,18.15,21.79,37.07,42.96,56.05,64.04,7.31,8.12,15.85,15.12,23.61,22.85,16.51,16.44,34.12,31.54,53.08,45.1,25.51,18.26,51.61,35.6,80.17,48.74,43.18,19.87,86.79,38.8,129.75,59.11,22.8,10.78,46.06,19.81,70.15,27.18,48.45,14.84,96.63,30.53,145.06,45.44,24.98,7.69,50.08,15.12,75.44,21.45,41.75,10.42,84.63,15.86,126.03,28,7.49,2.2,15.41,3.01,23.18,4.08,15.76,2.17,31.52,4.41,47.35,6.01,17.04,1.72,34.15,3.61,51.25,3.85,28.26.4,56.54-.34,84.81-.88,8.38-.16,16.76-1.17,25.12-2.02,18.59-1.89,37.17-4.01,55.76-5.88,15.54-1.56,31.11-2.86,46.66-4.36,15.54-1.5,31.07-3.13,46.61-4.67,14.72-1.46,29.44-2.85,44.15-4.33,15.04-1.51,30.07-3.14,45.11-4.65,15.54-1.56,31.13-2.71,46.62-4.63,17.05-2.11,34.03-4.75,51-7.44,18.28-2.9,36.71-5.26,54.73-9.39,32.31-7.41,64.37-15.91,96.51-24.07,14.58-3.7,28.95-8.31,43.65-11.35,27.21-5.63,54.64-10.14,80.85-19.85,37.38-13.85,74.78-27.66,112.3-41.12,32.08-11.51,63.45-24.57,93.72-40.28,21.44-11.12,43.21-21.61,64.52-32.98,28.06-14.97,55.95-30.29,83.65-45.91,20.04-11.3,40.04-22.75,59.35-35.22,14.99-9.68,31.09-17,46.83-25.12,7.8-4.02,15.87-7.53,23.5-11.84,10.02-5.66,20.58-10.7,28.17-19.83,7.89-9.48,16.42-18.53,23.35-28.67,7.45-10.89,14.04-22.51,15.21-36.27.61-7.17,3.38-13.75,7.26-19.69,6.12-9.35,7.94-19.55,7.71-30.51-.16-7.43-.14-15.01,1.14-22.28,1.62-9.18-.28-17.51-3.89-25.6ZM824.91,95.11c4.26-9.74,8.89-19.63,19.74-24.05,8.42-3.43,17.28-3.31,26.1-2.22,26.01,3.23,50.29,12.41,74.39,22.11,29.99,12.08,59,26.18,86.9,42.54.97.57,1.89,1.24,3.24,2.12-4.71,8.24-9.17,16.38-14.09,24.23-.75,1.19-3.83,1.74-5.58,1.36-13.48-2.88-26.91-6-40.33-9.16-8.08-1.9-16.02-4.58-24.19-5.9-16.95-2.76-29.8,6.1-34.04,22.66-3.67,14.33-2.56,28.77-1.04,43.21,2.63,25.01,6.38,49.8,12.66,74.22,7.57,29.45,23.6,53.77,44.67,75.03,5.32,5.37,11.58,9.91,17.84,14.21,9.9,6.8,20.65,6.53,31.45,2.22,27.02-10.79,48.69-28.63,66.04-51.65,5.86-7.77,11.02-16.36,14.92-25.26,9.14-20.92-.51-38.3-22.85-43.16-13.59-2.96-26.34-1.51-38.52,5.49-9.66,5.55-19.49,10.84-29.41,15.91-3.5,1.79-7.45,2.86-11.31,3.73-8.24,1.85-14.73-1.31-19.54-7.95-4.44-6.12-4.44-12.69-1.15-19.34,4.94-9.99,12.6-17.92,21.71-23.71,21.14-13.43,43.49-24.55,68.28-29.73,25.11-5.25,48.43-2.23,68.14,15.75,11.15,10.17,18.73,22.85,24.56,36.63,8.91,21.09,15.83,42.7,17.63,65.72,2.04,26.17-6.38,47.55-27.49,63.95-12.99,10.09-24.51,22.12-37.79,31.76-33.88,24.57-70.42,44.11-110.81,56.11-39.98,11.88-67.79-2.44-88.58-34.97-11.76-18.4-17.44-39.08-23.73-59.6-22.77-74.25-45.56-148.49-68.37-222.73-6.12-19.93-8.05-39.88.56-59.54Zm-349.09,11.46c19.89-4.04,39.82-7.9,59.66-12.16,4.42-.95,6.84.29,9.58,3.67,74.79,92.28,149.69,184.47,224.57,276.67.94,1.16,1.91,2.28,2.8,3.34,4.52-.56,2.9-3.26,2.12-5.5-8.12-23.58-16.29-47.15-24.42-70.73-29.1-84.43-58.2-168.85-87.28-253.29-.48-1.39-.79-2.83-1.39-5.05,6.95-.57,13.47-1.25,20.02-1.63,20.98-1.22,41.92-1.36,62.79,1.86,3.84.59,5.68,2.25,6.85,5.85,9.55,29.41,19.5,58.7,28.88,88.16,28.75,90.31,57.28,180.69,85.98,271.01,3.32,10.46,6.88,20.86,10.87,31.08,12.11,30.96,31.12,55.59,63.42,67.71.74.28,1.38.8,2.77,1.63-13.04,3.55-25.35,6.92-37.66,10.26-18.14,4.92-36.26,9.9-54.45,14.58-1.99.51-5.23.09-6.54-1.24-26.39-26.62-52.56-53.45-78.8-80.22-43.27-44.14-86.55-88.26-129.83-132.39-1.17-1.19-2.21-2.58-3.57-3.48-1.56-1.03-3.41-1.6-5.14-2.38.05,1.8-.36,3.77.22,5.38,23.99,66.48,48.07,132.92,72.13,199.37,5.26,14.53,10.51,29.07,16.07,44.44-33.07,8.95-65.83,17.81-98.97,26.77-4.69-16.27-9.21-31.89-13.7-47.52-32.73-113.97-65.55-227.91-98.11-341.92-10.57-37.01-33.91-63.85-65.22-84.73-.4-.27-.74-.62-1.99-1.7,13.28-2.73,25.8-5.33,38.33-7.87Zm-221.94,104.82c7.18-15.65,16.86-29.85,28.38-42.7,13.75-15.34,31.32-24.06,51.22-28.07,22.83-4.6,45.87-5.51,69.03-2.46,17.81,2.34,31.88,10.78,42.67,25.05,25.72,34.02,42.92,71.76,50.8,113.79,7.78,41.52,11.6,83.37,13.13,125.67-1.7,21.37-3.23,42.76-5.22,64.1-.44,4.71-2.15,9.41-3.85,13.89-6.52,17.21-17.23,24.58-35.75,24.92-11.31.2-22.71-.39-33.93.73-13.53,1.35-27.14,3.28-40.33,6.51-25.31,6.18-45-2.54-61.74-20.84-23.56-25.75-45.1-53.07-62.38-83.46-18.69-32.86-28.28-68.37-29.17-106.22-.75-31.54,3.93-62.1,17.14-90.92Zm62.34,484.85c-22.86,12.87-43.1,28.3-55.04,52.62-7.76,15.81-12.92,32.41-16.17,49.65-1.1,5.84-2,11.71-3.91,17.67-2.27-5.84-4.61-11.66-6.8-17.54-40.98-110.02-82.43-219.86-122.68-330.15-16.12-44.17-29.43-89.36-44.37-133.96-4.17-12.44-1.91-22.63,5.45-33.48,22.25-32.81,48.09-62.54,75.22-91.27.78-.83,1.68-1.55,3.16-2.9,39.72,129.5,79.28,258.48,119.05,388.11,52.73-17.37,104.8-34.52,157.56-51.89.1,2.3.24,4.03.24,5.75.01,31.16-.08,62.32.12,93.48.03,4.09-1.33,5.8-5.01,7.11-36.7,13.09-72.76,27.63-106.81,46.8Zm264.04,333.86c-63.07-25.9-126.12-51.86-189.25-77.61-4.72-1.92-6.17-4.11-6.11-9.4.76-59.94,1.47-119.89,1.45-179.84,0-19.27-2.01-38.55-3.49-57.79-.36-4.67.86-6.57,5.35-8.06,28.61-9.45,57.03-19.48,82.54-36.01,8.49-5.5,16.6-11.6,25.45-17.83-.17,1.81-.27,3.48-.48,5.15-3.22,25.42-7.1,50.77-9.52,76.26-3.22,33.96-5.56,68.02-7.81,102.06-1.86,28.23-2.94,56.52-4.61,84.76-.22,3.77,1.88,4.44,4.41,5.41,43.49,16.62,86.93,33.36,130.5,49.76,5.14,1.93,7.47,4.56,8.67,9.88,5.43,24.17,11.35,48.23,17.09,72.33.18.78.28,1.57.6,3.41-18.8-7.71-36.8-15.08-54.79-22.47Zm133,40.16c-9.02-2.9-18.01-5.93-27.06-8.74-2.86-.89-4.17-2.2-4.56-5.47-6.45-53.88-13.1-107.73-19.66-161.6-2.17-17.84-4.23-35.7-6.37-53.55-.16-1.31-.52-2.59-.83-4.09h-67.9c1.33,23.66,2.65,47.27,4.02,71.69-6.07-2.48-11.42-4.66-16.77-6.86-15.38-6.33-30.74-12.72-46.16-18.93-2.93-1.18-3.83-2.55-3.61-5.9,1.99-29.9,3.67-59.83,5.52-89.74,2.54-41.21,5.16-82.41,7.64-123.63.17-2.79,1.22-4,3.84-4.79,52.23-15.71,104.44-31.5,156.66-47.26,1.09-.33,2.24-.44,3.75-.73,14.84,156.64,29.65,313.02,44.53,470.15-11.56-3.69-22.3-7.11-33.02-10.56Zm279.51,68.79c-22.57-4.85-44.97-10.48-67.45-15.79-2.73-.65-4.62-1.79-5.41-4.93-13.26-52.74-32.74-103.32-53.66-153.39-6.93-16.58-14.28-32.98-21.45-49.45-.25-.58-.63-1.11-1.82-3.15-1.07,2.4-2.32,3.84-2.21,5.16,1.51,18.42,3.2,36.82,4.85,55.22,2.11,23.55,4.23,47.09,6.33,70.64,1.7,19.07,3.39,38.14,5.06,57.21.11,1.3.01,2.62.01,4.7-6.37-1.71-12.38-3.27-18.36-4.94-13.94-3.89-27.83-7.95-41.8-11.68-3.49-.93-5.13-2.25-5.54-6.15-3.03-28.47-6.34-56.91-9.58-85.36-3.2-28.12-6.42-56.23-9.6-84.35-3.14-27.79-6.23-55.58-9.37-83.37-3.2-28.28-6.44-56.56-9.63-84.85-3.12-27.62-6.21-55.25-9.33-82.88-2.18-19.35-4.37-38.71-6.55-58.06-.18-1.63-.31-3.27-.51-5.39,18.29-4.37,36.34-8.68,54.91-13.12,2.09,5.42,4.14,10.63,6.1,15.87,38.48,102.63,76.94,205.26,115.41,307.89.23.62.36,1.35.78,1.83,1.03,1.2,2.2,2.3,3.31,3.43.36-1.59,1.25-3.26,1.01-4.76-8.46-54.08-17.01-108.16-25.59-162.22-8.16-51.44-16.38-102.87-24.56-154.3-.98-6.19-1.85-12.4-2.83-19.01,23.8-3.97,47.03-7.84,70.95-11.83,24.13,193.38,47.14,386.45,80.59,579.04-8.31-.63-16.39-.35-24.07-2Zm252.83-20.51c-23.7,11.33-48.72,18.49-74.82,19.79-37.4,1.85-74.88,1.99-112.33,2.98-4.17.11-5.65-1.24-6.08-5.53-3.04-29.97-6.37-59.91-9.63-89.87-3.51-32.27-7.05-64.54-10.54-96.81-3.18-29.46-6.29-58.93-9.48-88.39-3.51-32.44-7.1-64.87-10.61-97.31-3.15-29.12-6.23-58.26-9.37-87.38-3.48-32.27-7.01-64.54-10.5-96.81-1.84-17.03-3.66-34.06-5.48-51.01,82.77-21.95,151.48-66.53,210.66-129.02.5,5.54.96,9.72,1.25,13.91,2.21,31.89,4.32,63.78,6.66,95.66.24,3.25-1.25,4.34-3.64,5.55-34.12,17.34-68.18,34.79-102.35,52.02-3.41,1.72-4.19,3.36-3.8,7.18,3.03,29.14,5.69,58.32,8.5,87.49,1.27,13.25,2.61,26.5,4.01,40.69,33.43-15.66,66.22-31.03,99.99-46.86,5.39,48.58,10.72,96.56,16.13,145.27h-91.52c4.27,78.73,8.49,156.73,12.79,235.96,31.48-24.83,62.11-48.98,93.67-73.87.66,8.88,1.29,16.74,1.81,24.61,2.28,34.55,4.53,69.11,6.77,103.66.49,7.48.78,14.97,1.41,22.43.26,3-.85,4.37-3.5,5.63Zm128.38-398.87c.68,32.8.85,65.63,2.44,98.38,2.22,45.55,5.16,91.08,8.51,136.56,3.06,41.52,8.66,82.76,17.08,123.57,1.91,9.24,4.14,18.42,6.07,26.94-39.14,4.43-77.93,8.83-117.21,13.28,0-4.36.15-9.49-.02-14.6-1.05-31.62-1.8-63.25-3.36-94.84-2.7-54.71-5.83-109.39-8.96-164.07-2.49-43.55-5.21-87.09-7.92-130.62-3.28-52.68-6.63-105.35-10.02-158.02-3.28-51-6.63-102-9.98-153-2-30.57-3.97-61.14-6.15-91.69-.25-3.58.43-4.95,4.19-5.49,19.82-2.82,39.27-.65,58.25,4.9,65.11,19.04,130.16,38.31,195.16,57.75,30.9,9.24,61.62,19.1,92.46,28.57,3.09.95,4.45,2.29,4.84,5.71,3.72,32.08,7.68,64.12,11.54,96.18.22,1.79.19,3.61.32,6.21-86.12-18.52-171.56-36.9-257.82-55.45,3.84,50.04,7.61,99.09,11.44,148.94,39.96-5.56,79.26-11.02,118.9-16.54v98.81c-36.51,2.04-72.99,4.08-109.8,6.13,0,11.15-.18,21.78.03,32.39Zm288.84,318.7c-14.93,4.63-29.81,9.41-44.71,14.12-.61.19-1.29.18-2.75.36-5.79-51.75-11.57-103.37-17.39-155.42-16.45,2.11-32.24,4.13-48.45,6.21-.85,14.77-1.69,28.88-2.47,43-2.13,38.57-4.25,77.13-6.3,115.71-.16,3.02-.9,4.69-4.28,5.52-24.24,5.9-48.41,12.07-72.61,18.14-.62.16-1.27.2-2.77.42,23.39-186.75,46.73-373.1,70.2-560.42,25.6,4.5,50.87,8.94,76.54,13.46,1.39,11.55,2.77,22.92,4.11,34.29,3.59,30.59,7.18,61.17,10.73,91.76,3.49,30.09,6.9,60.2,10.4,90.29,3.83,32.9,7.77,65.79,11.6,98.69,3.51,30.09,6.92,60.19,10.4,90.28,3.41,29.43,6.81,58.87,10.33,88.29.31,2.58.49,4.37-2.58,5.32Zm210.95-56.96c-1.06-8.3-1.99-15.85-2.99-23.4-6.2-46.56-13.53-92.89-29.13-137.44-6.01-17.18-13.39-33.71-25.63-47.62-13.58-15.43-30.75-24.48-50.84-27.09-11.95-1.55-24.18-.88-36.29-1.15-1.11-.02-2.23.41-3.84.73,1.88,12.31,3.73,24.42,5.57,36.54,5.45,36.03,10.89,72.07,16.34,108.1,5.17,34.22,10.35,68.45,15.52,102.67.3,1.98.83,3.97.74,5.93-.06,1.18-.86,3.03-1.76,3.35-20.32,7.2-40.71,14.22-61.68,21.49-22.69-210.58-45.31-420.57-68.07-631.9,9.43,0,18.37.11,27.31-.02,26.65-.39,53.33-1.85,79.93-1.01,19.83.63,37.78,8.63,53.22,21.43,10.95,9.08,18.77,20.73,25.6,32.98,12.26,22,23.46,44.44,26.55,69.99,3.61,29.88-.3,58.77-11.03,86.76-8.29,21.62-20.31,41.14-34.32,59.49-1.52,1.99-2.95,4.03-4.4,6.07-.17.24-.17.6-.21.76,8.33,3.74,16.88,6.98,24.86,11.29,22.43,12.12,37.35,31.07,47.84,53.93,15.89,34.62,26.44,71.02,35.89,107.77,5.43,21.1,10.48,42.29,16.02,63.36,1.47,5.59,3.78,11.03,6.25,16.28,4.35,9.25,9.82,17.7,20.4,22.73-24.3,12.84-47.74,25.22-71.85,37.96Zm251.25-118.82c-.81-2.34-1.57-4.27-2.15-6.25-25.01-84.52-50.01-169.05-75.02-253.57-.24-.8-.31-1.7-.75-2.37-.96-1.45-2.11-2.78-3.18-4.16-.68,1.6-1.84,3.17-1.96,4.81-3.3,45.66-6.5,91.34-9.72,137.01-.07.94-.29,1.88-.59,3.75-1.34-2.02-2.27-3.29-3.08-4.64-23.08-38.38-46.14-76.78-69.29-115.12-.79-1.3-2.47-2.07-3.74-3.09-.41,1.57-1.43,3.28-1.13,4.7,12.14,56.76,23.69,113.67,36.97,170.17,6.14,26.14,15.06,51.7,23.93,77.1,5.63,16.11,15.92,29.22,33.7,35.95-2.05.79-3.28,1.35-4.57,1.74-22.27,6.78-44.58,13.45-66.79,20.41-3.63,1.14-6.32.6-9.23-1.47-11.92-8.53-18.39-20.76-21.52-34.42-5.6-24.47-10.97-49.05-14.95-73.82-15.63-97.43-31.67-194.79-55.3-290.68-6.71-27.24-15.65-53.94-23.95-80.77-7.11-22.99-21.42-40.74-41.07-54.38-5.18-3.6-10.2-7.42-16.58-12.08,8.87-1.01,16.43-1.93,24-2.74,20.36-2.16,40.75-4.13,61.09-6.52,4.25-.5,6.11.84,7.91,4.48,32.53,65.79,65.18,131.51,97.81,197.24.37.75.61,1.61,1.14,2.21.87.99,1.94,1.81,2.92,2.69.64-1.29,1.9-2.61,1.84-3.87-.99-20.45-2.1-40.9-3.28-61.35-1.15-19.94-2.46-39.88-3.61-59.82-1.43-24.77-2.77-49.54-4.13-74.31-.08-1.45-.01-2.91-.01-4.73,11.32,0,22.27-.34,33.2.11,8.79.36,17.55,1.61,26.31,2.6,4.41.5,7.54,2.49,9.12,7.14,9.13,26.74,19.29,53.15,27.58,80.14,20.49,66.74,39.6,133.91,60.36,200.57,10.77,34.57,23.58,68.53,36.09,102.53,4.66,12.66,11.71,24.34,21.23,34.16,3.53,3.64,7.8,6.55,12.22,10.2-27.03,16.67-54.14,33.39-81.81,50.46Z"/><path class="b" d="m591.42,688.95v99.47c21.4-.95,42.43-1.88,64.02-2.83-3.63-35.42-7.2-70.2-10.82-105.47-18.27,3.03-35.87,5.96-53.2,8.84Z"/><path class="b" d="m1763.14,466.49c-15.12-15.67-35.54-15.27-56.25-14.89.2,2.35.28,4,.49,5.63,2.17,16.83,4.39,33.64,6.53,50.48,4.79,37.79,9.56,75.58,14.24,113.38.42,3.38,1.82,4.5,5.15,4.23,9.52-.77,17.09-5.4,23.5-11.98,23.27-23.91,35.41-52.21,34-86.01-1.01-24.13-11.49-44.08-27.66-60.84Z"/><path class="b" d="m1573.65,683.94c-1.45-12.52-4.06-24.91-6.48-37.3-.36-1.85-2.57-3.34-3.93-5-1.05,1.76-2.13,3.5-3.13,5.29-.23.41-.2.97-.24,1.47-1.88,22.87-4.27,45.7-5.51,68.6-1.86,34.38-2.98,68.8-4.26,103.21-.32,8.58-.05,17.18-.05,26.12,13.01-1.99,26.12-4,39.97-6.12-1.19-13.11-2.17-25.69-3.5-38.23-4.19-39.36-8.32-78.73-12.88-118.04Z"/><path class="b" d="m411.63,229.18c-6.34-11.23-14.73-19.31-28.23-20.3-5.14-.38-10.33-.56-15.46-.25-15.41.93-30.16,4.6-39.59,17.77-6.9,9.63-13.65,20.14-17.13,31.3-16.38,52.51-9.68,102.46,21.52,147.99,14.32,20.91,34.71,33.71,61,34.87,23.74,1.05,42.29-12.76,45.64-34.92,1.56-10.31,1.2-20.9,1.71-31.37.35-.05.7-.1,1.05-.15-2.46-25.97-4.43-52.01-7.53-77.91-2.85-23.86-11.14-46.09-22.97-67.04Z"/></g></svg>